<svg version="1.2" xmlns="http://www.w3.org/2000/svg" viewBox="0 0 680 680" width="680" height="680"><style>.s2{fill:red}</style><g id="Capa 1"><g id="&lt;Group&gt;"><path id="&lt;Path&gt;" d="M531.3 79.7c7.7-4.8 16.6-7.4 26.3-7.4 27.7 0 50.2 22.5 50.2 50.2 0 9.5-2.5 18.2-7.1 25.8l.2.2c39.5 53.5 62.2 119.8 62.2 191.3 0 178.4-144.6 322.9-322.9 322.9-178.4 0-322.9-144.5-322.9-322.9 0-178.3 144.5-322.9 322.9-322.9 71.4 0 137.6 23.6 191.1 62.8z" fill="#fff"/><path id="&lt;Path&gt;" d="M574.9 169.4c-5.3 1.9-11.5 3.2-17.5 3.2-27.6 0-49.9-22.3-49.9-49.9 0-6.1 1.2-12.1 3.2-17.6-47.9-34.8-106.8-55.4-170.6-55.4C179.9 49.7 50 179.6 50 339.8 50 500.1 179.9 630 340.1 630c160.3 0 290.2-129.9 290.2-290.2 0-63.6-20.7-122.6-55.4-170.4z" fill="#fff800"/><path id="&lt;Path&gt;" class="s2" d="M530.2 122.1c0-15.2 12.3-27.4 27.5-27.4 15.1 0 27.4 12.2 27.4 27.4 0 15.1-12.3 27.4-27.4 27.4-15.2 0-27.5-12.3-27.5-27.4zm-348 380.4q2.7-2.7 6.1-4 3.4-1.4 6.9-1.4 3.5 0 6.8 1.4 3.5 1.3 6.2 4l2.5 2.5-5 5.2-2.7-2.5q-1.6-1.7-3.6-2.5-2.1-.8-4.2-.8t-4.2.8q-2 .8-3.6 2.5-1.6 1.5-2.5 3.6-.8 2-.8 4.1c0 1.4.3 2.8.8 4.2q.9 2 2.5 3.6 3.2 3.3 7.8 3.3 2.2 0 4.2-.8 2.1-.8 3.6-2.5l2.7-2.5 5 5.2-2.5 2.5q-2.7 2.7-6.2 4.1-3.3 1.3-6.8 1.3t-6.9-1.3q-3.4-1.4-6.1-4.1-2.7-2.7-4-6-1.3-3.4-1.3-6.9 0-3.6 1.3-6.9 1.3-3.4 4-6.1z"/><path id="&lt;Compound Path&gt;" fill-rule="evenodd" class="s2" d="M245 520.9l5.1 5.1-2.5 2.5q-2.6 2.7-6 4.1-3.3 1.3-7 1.3t-7-1.3q-3.3-1.4-6-4.1-2.6-2.6-3.9-6c-.9-2.3-1.4-4.6-1.4-6.9 0-2.4.5-4.6 1.4-6.9q1.3-3.3 3.9-6 2.7-2.7 6.1-4c2.3-.9 4.6-1.4 6.9-1.4 2.4 0 4.7.5 6.9 1.4q3.4 1.3 6.1 4l2.5 2.5-20.3 20.3q3.1 1.6 6.5 1.1 3.6-.6 6.2-3.2zm-18.2-13.1q-3.3 3.2-3.3 7.8 0 2.6 1.2 4.8l2.9-2.9c1.3-1.4 2.7-2.8 4.2-4.2l4.4-4.4q2.1-2 3.2-3.2-3.1-1.5-6.6-1c-2.3.3-4.3 1.3-6 3.1z"/><path id="&lt;Path&gt;" class="s2" d="M256.7 515.5c0-2.6.5-4.9 1.4-7.1q1.4-3.4 3.9-5.8 2.5-2.5 5.9-3.9c2.2-1 4.6-1.5 7.1-1.5s4.9.5 7.1 1.5q3.3 1.4 5.9 3.9 2.5 2.4 3.9 5.8c1 2.2 1.4 4.5 1.4 7.1v18.4h-7.2v-18.4q0-2.3-.9-4.2-.8-2.1-2.4-3.5-1.4-1.6-3.5-2.4-2-.9-4.3-.9t-4.4.9q-1.9.8-3.5 2.4-1.4 1.4-2.3 3.5-.8 1.9-.8 4.2v18.4h-7.3zm48.6-13q2.7-2.7 6-4 3.5-1.4 7-1.4t6.8 1.4q3.4 1.3 6.2 4l2.5 2.5-5.1 5.2-2.6-2.5q-1.6-1.7-3.7-2.5-2-.8-4.1-.8-2.1 0-4.2.8-2 .8-3.7 2.5-1.6 1.5-2.4 3.6-.8 2-.8 4.1c0 1.4.2 2.8.8 4.2q.8 2 2.4 3.6 3.3 3.3 7.9 3.3 2.2 0 4.2-.8 2.1-.8 3.6-2.5l2.6-2.5 5.1 5.2-2.5 2.5q-2.8 2.7-6.2 4.1-3.3 1.3-6.8 1.3t-7-1.3q-3.3-1.4-6-4.1-2.7-2.7-4-6-1.3-3.4-1.3-6.9 0-3.6 1.3-6.9 1.3-3.4 4-6.1z"/><path id="&lt;Compound Path&gt;" fill-rule="evenodd" class="s2" d="M339.3 515.6q0-3.9 1.4-7.1c1-2.3 2.3-4.2 4-5.8q2.5-2.6 5.8-3.9 3.4-1.5 7.1-1.5c2.6 0 5 .5 7.1 1.5q3.4 1.3 5.9 3.9 2.5 2.5 3.9 5.8 1.5 3.2 1.5 7.1 0 3.7-1.5 7.1-1.4 3.3-3.9 5.8-2.5 2.6-5.9 4.1c-2.1.9-4.5 1.3-7.1 1.3q-3.7 0-7.1-1.3-3.3-1.5-5.8-4.1c-1.7-1.6-3-3.6-4-5.8q-1.4-3.4-1.4-7.1zm7.2 0q0 2.3.8 4.3c.6 1.4 1.4 2.6 2.4 3.6s2.2 1.8 3.6 2.4c1.4.5 2.8.8 4.3.8 1.6 0 3-.3 4.4-.8q2-.9 3.5-2.4c1-1 1.8-2.2 2.3-3.6q.9-2 .9-4.3t-.9-4.3q-.8-2-2.3-3.5-1.5-1.5-3.5-2.3c-1.4-.7-2.8-.9-4.4-.9q-2.3 0-4.3.9c-1.4.5-2.6 1.3-3.6 2.3q-1.5 1.5-2.4 3.5-.8 2-.8 4.3z"/><path id="&lt;Path&gt;" class="s2" d="M414.1 497.1v7.3H392q-1.6 0-2.6 1.1-1.1 1-1.1 2.6 0 1.5 1.1 2.7 1 1 2.6 1h14.7q2.3 0 4.2.9 2 .8 3.5 2.3 1.6 1.5 2.4 3.5c.6 1.3.9 2.7.9 4.3 0 1.5-.3 2.9-.9 4.3q-.8 2-2.4 3.5-1.5 1.5-3.5 2.4c-1.3.5-2.7.8-4.2.8h-22.1v-7.3h22.1c1.1 0 1.9-.3 2.7-1 .7-.8 1-1.7 1-2.7 0-1.1-.3-1.9-1-2.7-.8-.6-1.6-1-2.7-1H392c-1.5 0-3-.3-4.3-.8-1.3-.6-2.5-1.4-3.5-2.4-.9-1-1.7-2.2-2.3-3.5q-.9-2-.9-4.3t.9-4.3q.9-2 2.3-3.5 1.5-1.5 3.5-2.3 2-.9 4.3-.9zm46.8 0v18.3c0 2.5-.6 4.9-1.5 7.1q-1.4 3.4-4 5.9-2.5 2.5-5.8 4c-2.2.9-4.6 1.4-7.1 1.4s-4.9-.5-7.1-1.4q-3.4-1.5-5.9-4-2.5-2.5-3.9-5.9-1.4-3.4-1.4-7.1v-18.3h7.2v18.3q0 2.3.9 4.3.8 2.1 2.3 3.6c1.1 1 2.2 1.8 3.5 2.4q2.1.8 4.4.8 2.2 0 4.3-.8c1.4-.6 2.5-1.4 3.5-2.4q1.5-1.5 2.4-3.6.8-2 .9-4.3v-18.3z"/><path id="&lt;Compound Path&gt;" fill-rule="evenodd" class="s2" d="M502.4 482.4v33q0 3.7-1.5 7.1-1.4 3.4-3.9 5.9-2.5 2.5-5.8 4c-2.2.9-4.6 1.4-7.1 1.4s-4.9-.5-7.1-1.4q-3.4-1.5-5.9-4c-1.7-1.7-3-3.7-4-5.9-.9-2.2-1.4-4.6-1.4-7.1s.5-4.9 1.4-7.1c1-2.2 2.3-4.1 4-5.8q2.5-2.5 5.9-3.9c2.2-1 4.6-1.5 7.1-1.5h11v-14.7zm-18.3 44.1q2.3 0 4.3-.8c1.3-.6 2.5-1.4 3.5-2.4q1.5-1.5 2.4-3.6.8-2 .8-4.3v-11h-11q-2.3 0-4.3.9c-1.4.5-2.6 1.3-3.6 2.4q-1.5 1.4-2.3 3.5-.9 1.9-.9 4.2 0 2.3.9 4.3.8 2.1 2.3 3.6c1 1 2.2 1.8 3.6 2.4q2 .8 4.3.8zM341.3 349.3c-7.1 0-14.6-.8-20.8-1.7.1 18.3 10.2 27.1 31 27.1 10.9 0 22-5.3 33.1-15.8.8-.8 2-.9 2.9-.2 7.6 5.1 11.1 15.1 10.5 21.8-1.2 13.3-17.8 34.4-57.3 34.4-42.4 0-65.8-22.3-65.8-62.7 0-60 34.2-98.8 87.1-98.8 38.8 0 52.5 22.1 52.5 41 0 32.8-29.4 54.9-73.2 54.9zm-19.5-24.5c34.9-.3 50.5-13.3 50.5-25.9 0-7.9-6.1-12.8-16-12.8-14.9 0-29.9 14.7-36.7 35.7-.2.7 0 1.5.4 2.1.4.5 1.1.9 1.8.9zm-145.6 90.1c-7.4 0-12.3-6.6-14.2-12.4-1.9-7-44.3-169.4-45.3-173.7-.6-2.3-.2-4.7 1.3-6.7 1.7-2.2 4.5-3.7 7.2-3.8l39.1.2c7.5-.3 9.5 4.8 10.5 9.8l25.7 112.5 44.8-112.7c2.9-6.2 5.7-9.5 12.5-9.7H292c1.7-.1 4.2.8 5.9 2.9 1.4 1.8 1.7 4.1 1 6.6-.4 1.6-57.3 132.8-74.7 172.9v.1c-3.3 7-8 10.6-14.3 11.2l-32.8 2.8h-.9zm45.9-17.5zm352.7-137.1l-.9 4.8c-15.6 82-20.4 106.7-20.4 137.4v5.7c0 1-.7 1.9-1.7 2.2-7.7 1.7-16.1 3.3-25.4 3.3-12.3 0-19.6-7.2-19.6-19.3 0-3.8.6-8.9 2-15.4-7.9 17-21.8 35.9-49.8 35.9-26.5 0-41.8-20.9-41.8-57.4 0-61.2 34.8-104.1 84.7-104.1 17.3 0 30.4 2.4 42.3 7.8 4.8-3 11.4-4.8 18.1-4.8 3.4 0 8.5.6 10.8 1.3 1.2.3 1.9 1.5 1.7 2.6zm-52 31.2c-3.5-3.2-9.2-4.8-16.8-4.8-20 0-42.4 28.9-42.4 67.6 0 11.1 6 18.1 15.5 18.1 22.1 0 35.4-23.6 44.5-78.9.1-.7-.2-1.5-.8-2z"/></g></g></svg>